<svg xmlns="http://www.w3.org/2000/svg" xmlns:xlink="http://www.w3.org/1999/xlink" viewBox="0 0 100 100" width="200px" height="200px"><circle cx="50" cy="49" r="29" fill="#4b4dff"/><path fill="#4343bf" d="M50,81c-17.645,0-32-14.355-32-32s14.355-32,32-32s32,14.355,32,32S67.645,81,50,81z M50,23 c-14.337,0-26,11.663-26,26s11.663,26,26,26s26-11.663,26-26S64.337,23,50,23z"/><path fill="#3abcf8" d="M50,85c-19.851,0-36-16.149-36-36h10c0,14.337,11.663,26,26,26s26-11.663,26-26h10 C86,68.851,69.851,85,50,85z"/><g><defs><rect id="11R6hXWmNJA_Q4Yacmt6Ja" width="76" height="80.343" x="-224" y="-114.343"/></defs><clipPath id="11R6hXWmNJA_Q4Yacmt6Jb"><use overflow="visible" xlink:href="#11R6hXWmNJA_Q4Yacmt6Ja"/></clipPath><g clip-path="url(#11R6hXWmNJA_Q4Yacmt6Jb)"><defs><rect id="11R6hXWmNJA_Q4Yacmt6Jc" width="720.914" height="1533.029" x="-247.886" y="-296.743"/></defs></g></g><g><polygon fill="#edf7f5" points="48.586,61.914 34.086,47.414 36.914,44.586 48.414,56.086 63.005,39.671 65.995,42.329"/></g></svg>